<?xml version="1.0" encoding="UTF-8"?><svg id="Layer_1" xmlns="http://www.w3.org/2000/svg" xmlns:xlink="http://www.w3.org/1999/xlink" viewBox="0 0 175.29 21.53"><defs><style>.cls-1{fill:#231f20;}.cls-2{fill:url(#_名称未設定グラデーション_20-4);}.cls-3{fill:url(#_名称未設定グラデーション_20-2);}.cls-4{fill:url(#_名称未設定グラデーション_20-3);}.cls-5{fill:url(#_名称未設定グラデーション_20-5);}.cls-6{fill:url(#_名称未設定グラデーション_20-6);}.cls-7{fill:url(#_名称未設定グラデーション_20-7);}.cls-8{fill:url(#_名称未設定グラデーション_20);}</style><linearGradient id="_名称未設定グラデーション_20" x1="29.08" y1=".15" x2="43.1" y2="15.11" gradientUnits="userSpaceOnUse"><stop offset="0" stop-color="#000"/><stop offset=".12" stop-color="#151515"/><stop offset=".37" stop-color="#4e4e4e"/><stop offset=".46" stop-color="#666"/><stop offset=".55" stop-color="#606060"/><stop offset=".67" stop-color="#4f4f4f"/><stop offset=".8" stop-color="#343434"/><stop offset=".95" stop-color="#0f0f0f"/><stop offset="1" stop-color="#000"/></linearGradient><linearGradient id="_名称未設定グラデーション_20-2" x1="6.18" y1="-2.13" x2="14.99" y2="4.28" xlink:href="#_名称未設定グラデーション_20"/><linearGradient id="_名称未設定グラデーション_20-3" x1="4.24" y1="13.76" x2="14.12" y2="20.04" xlink:href="#_名称未設定グラデーション_20"/><linearGradient id="_名称未設定グラデーション_20-4" x1="103.62" y1="15.42" x2="112.54" y2="20.33" xlink:href="#_名称未設定グラデーション_20"/><linearGradient id="_名称未設定グラデーション_20-5" x1="71.32" y1="7.79" x2="82.43" y2="13.67" xlink:href="#_名称未設定グラデーション_20"/><linearGradient id="_名称未設定グラデーション_20-6" x1="163.3" y1="7.79" x2="174.41" y2="13.67" xlink:href="#_名称未設定グラデーション_20"/><linearGradient id="_名称未設定グラデーション_20-7" x1="131.22" y1="13.34" x2="142.04" y2="19.92" xlink:href="#_名称未設定グラデーション_20"/></defs><path class="cls-1" d="M47.82,21.53h-5.64L50.48,0h5.64l-8.3,21.53Z"/><polygon class="cls-8" points="40.36 21.53 32.07 0 37.7 0 43.19 14.23 40.36 21.53"/><g><rect class="cls-3" x="7.08" width="10.87" height="4.97"/><rect class="cls-4" x="7.08" y="16.53" width="10.87" height="4.97"/></g><g><path class="cls-1" d="M5.26,16.53V0C2.37,0,0,2.37,0,5.26v10.98c0,2.89,2.37,5.26,5.26,5.26v-4.97Z"/><path class="cls-1" d="M19.77,0V21.5c2.89,0,5.26-2.37,5.26-5.26V5.26c0-2.89-2.37-5.26-5.26-5.26Z"/></g><g><rect class="cls-1" x="93.79" y="13.23" width="5.26" height="8.3"/><polygon class="cls-2" points="103.43 15.06 107.86 21.53 114.26 21.53 109.83 15.06 103.43 15.06"/></g><path class="cls-1" d="M115.09,7.97v-2.72c0-2.89-2.37-5.26-5.26-5.26h-15.74V4.97h15.74v3.3h-16.04v4.97h16.04c2.89,0,5.26-2.37,5.26-5.26Z"/><g><rect class="cls-5" x="70.81" y="8.27" width="12.2" height="4.97"/><rect class="cls-1" x="68.99" y="16.53" width="14.32" height="4.97"/><rect class="cls-1" x="68.65" width="14.66" height="4.97"/></g><path class="cls-1" d="M68.99,16.53V0c-2.89,0-5.26,2.37-5.26,5.26v10.98c0,2.89,2.37,5.26,5.26,5.26v-4.97Z"/><rect class="cls-6" x="162.79" y="8.27" width="12.2" height="4.97"/><rect class="cls-1" x="160.97" y="16.53" width="14.32" height="4.97"/><rect class="cls-1" x="160.63" width="14.66" height="4.97"/><path class="cls-1" d="M160.97,16.53V0c-2.89,0-5.26,2.37-5.26,5.26v10.98c0,2.89,2.37,5.26,5.26,5.26v-4.97Z"/><path class="cls-7" d="M140.82,8.27v6.08h0v2.22h-15.54v4.97h15.54c2.89,0,5.26-2.37,5.26-5.26v-2.75c0-2.89-2.37-5.26-5.26-5.26Z"/><path class="cls-1" d="M123.45,5.26v2.72c0,2.89,2.37,5.26,5.26,5.26h10.28v-4.97s0,0,0,0h-10.28v-3.3h15.54V0h-15.54c-2.89,0-5.26,2.37-5.26,5.26Z"/></svg>